STARTFONT 2.1
FONT -Monotype-Gill Sans-Bold-I-Normal--12-120-72-72-P-64-iso8859-1
SIZE 12 72 72
FONTBOUNDINGBOX 16 15 -2 -3

STARTPROPERTIES 22
FOUNDRY "Monotype"
FAMILY_NAME "Gill Sans"
WEIGHT_NAME "Bold"
SLANT "I"
SETWIDTH_NAME "Normal"
ADD_STYLE_NAME ""
PIXEL_SIZE 12
POINT_SIZE 120
RESOLUTION_X 72
RESOLUTION_Y 72
SPACING "P"
AVERAGE_WIDTH 64
CHARSET_REGISTRY "iso8859"
CHARSET_ENCODING "1"
COPYRIGHT "Copyright (c) 1996 Monotype Typography Ltd."
CAP_HEIGHT 10
X_HEIGHT 6
WEIGHT 10
QUAD_WIDTH 8
DEFAULT_CHAR 32
FONT_DESCENT 3
FONT_ASCENT 12
ENDPROPERTIES

CHARS 191

STARTCHAR space
ENCODING 32
SWIDTH 278 0
DWIDTH 4 0
BBX 0 0 0 0
BITMAP
ENDCHAR

STARTCHAR exclam
ENCODING 33
SWIDTH 260 0
DWIDTH 3 0
BBX 4 9 1 0
BITMAP
30
30
30
60
60
60
00
C0
C0
ENDCHAR

STARTCHAR quotedbl
ENCODING 34
SWIDTH 479 0
DWIDTH 6 0
BBX 3 3 3 6
BITMAP
A0
A0
A0
ENDCHAR

STARTCHAR numbersign
ENCODING 35
SWIDTH 584 0
DWIDTH 8 0
BBX 8 9 1 0
BITMAP
12
12
FF
24
24
24
FF
48
48
ENDCHAR

STARTCHAR dollar
ENCODING 36
SWIDTH 490 0
DWIDTH 6 0
BBX 7 11 0 -2
BITMAP
14
3C
6A
68
38
3C
2C
AC
78
50
50
ENDCHAR

STARTCHAR percent
ENCODING 37
SWIDTH 719 0
DWIDTH 9 0
BBX 9 9 0 0
BITMAP
6100
D200
B400
6400
0800
1300
1680
2580
4300
ENDCHAR

STARTCHAR ampersand
ENCODING 38
SWIDTH 729 0
DWIDTH 9 0
BBX 8 9 1 0
BITMAP
0E
1B
1B
1E
78
CD
C7
EE
7B
ENDCHAR

STARTCHAR quoteright
ENCODING 39
SWIDTH 260 0
DWIDTH 3 0
BBX 3 4 1 5
BITMAP
60
60
20
C0
ENDCHAR

STARTCHAR parenleft
ENCODING 40
SWIDTH 344 0
DWIDTH 4 0
BBX 4 12 1 -3
BITMAP
10
30
60
60
C0
C0
C0
C0
C0
C0
40
40
ENDCHAR

STARTCHAR parenright
ENCODING 41
SWIDTH 344 0
DWIDTH 4 0
BBX 4 12 0 -3
BITMAP
20
20
30
30
30
30
30
30
60
60
C0
80
ENDCHAR

STARTCHAR asterisk
ENCODING 42
SWIDTH 479 0
DWIDTH 6 0
BBX 5 6 1 3
BITMAP
20
A8
78
F0
A8
20
ENDCHAR

STARTCHAR plus
ENCODING 43
SWIDTH 584 0
DWIDTH 8 0
BBX 7 7 1 1
BITMAP
10
10
10
FE
10
10
10
ENDCHAR

STARTCHAR comma
ENCODING 44
SWIDTH 260 0
DWIDTH 3 0
BBX 3 4 0 -2
BITMAP
60
60
20
C0
ENDCHAR

STARTCHAR minus
ENCODING 45
SWIDTH 584 0
DWIDTH 8 0
BBX 6 1 1 4
BITMAP
FC
ENDCHAR

STARTCHAR period
ENCODING 46
SWIDTH 260 0
DWIDTH 3 0
BBX 2 2 1 0
BITMAP
C0
C0
ENDCHAR

STARTCHAR slash
ENCODING 47
SWIDTH 281 0
DWIDTH 4 0
BBX 5 9 0 0
BITMAP
08
10
10
20
20
40
40
80
80
ENDCHAR

STARTCHAR zero
ENCODING 48
SWIDTH 531 0
DWIDTH 7 0
BBX 7 9 1 0
BITMAP
1C
36
66
66
6C
CC
CC
D8
70
ENDCHAR

STARTCHAR one
ENCODING 49
SWIDTH 531 0
DWIDTH 7 0
BBX 4 9 2 0
BITMAP
30
30
30
60
60
60
C0
C0
C0
ENDCHAR

STARTCHAR two
ENCODING 50
SWIDTH 531 0
DWIDTH 7 0
BBX 7 9 0 0
BITMAP
1C
36
06
06
0C
18
30
40
FC
ENDCHAR

STARTCHAR three
ENCODING 51
SWIDTH 531 0
DWIDTH 7 0
BBX 7 9 1 0
BITMAP
1C
36
06
1C
18
0C
0C
D8
70
ENDCHAR

STARTCHAR four
ENCODING 52
SWIDTH 531 0
DWIDTH 7 0
BBX 7 9 1 0
BITMAP
06
0E
1E
34
6C
FE
18
18
18
ENDCHAR

STARTCHAR five
ENCODING 53
SWIDTH 531 0
DWIDTH 7 0
BBX 7 9 1 0
BITMAP
1E
30
30
60
78
0C
0C
D8
70
ENDCHAR

STARTCHAR six
ENCODING 54
SWIDTH 531 0
DWIDTH 7 0
BBX 6 9 1 0
BITMAP
0C
18
30
60
78
CC
CC
D8
70
ENDCHAR

STARTCHAR seven
ENCODING 55
SWIDTH 531 0
DWIDTH 7 0
BBX 6 9 2 0
BITMAP
FC
0C
18
30
30
60
60
C0
C0
ENDCHAR

STARTCHAR eight
ENCODING 56
SWIDTH 531 0
DWIDTH 7 0
BBX 7 9 1 0
BITMAP
1C
36
36
1C
38
6C
CC
D8
70
ENDCHAR

STARTCHAR nine
ENCODING 57
SWIDTH 531 0
DWIDTH 7 0
BBX 6 9 2 0
BITMAP
38
6C
CC
DC
78
18
30
60
C0
ENDCHAR

STARTCHAR colon
ENCODING 58
SWIDTH 260 0
DWIDTH 3 0
BBX 3 6 1 0
BITMAP
60
60
00
00
C0
C0
ENDCHAR

STARTCHAR semicolon
ENCODING 59
SWIDTH 260 0
DWIDTH 3 0
BBX 4 8 0 -2
BITMAP
30
30
00
00
60
60
20
C0
ENDCHAR

STARTCHAR less
ENCODING 60
SWIDTH 584 0
DWIDTH 8 0
BBX 7 7 1 1
BITMAP
06
18
60
80
60
18
06
ENDCHAR

STARTCHAR equal
ENCODING 61
SWIDTH 584 0
DWIDTH 8 0
BBX 6 4 1 3
BITMAP
FC
00
00
FC
ENDCHAR

STARTCHAR greater
ENCODING 62
SWIDTH 584 0
DWIDTH 8 0
BBX 7 7 1 1
BITMAP
C0
30
0C
02
0C
30
C0
ENDCHAR

STARTCHAR question
ENCODING 63
SWIDTH 323 0
DWIDTH 4 0
BBX 5 9 1 0
BITMAP
70
58
18
30
30
60
00
C0
C0
ENDCHAR

STARTCHAR at
ENCODING 64
SWIDTH 979 0
DWIDTH 13 0
BBX 11 12 2 -3
BITMAP
1F80
30C0
66C0
CF60
DB60
DB60
DB60
DBE0
CEC0
6000
3040
1F80
ENDCHAR

STARTCHAR A
ENCODING 65
SWIDTH 625 0
DWIDTH 8 0
BBX 7 9 1 0
BITMAP
0C
0C
1C
36
36
66
7E
C6
C6
ENDCHAR

STARTCHAR B
ENCODING 66
SWIDTH 635 0
DWIDTH 8 0
BBX 7 9 1 0
BITMAP
3C
36
36
66
7C
66
C6
CC
F8
ENDCHAR

STARTCHAR C
ENCODING 67
SWIDTH 688 0
DWIDTH 9 0
BBX 8 9 2 0
BITMAP
1F
30
60
60
C0
C0
C0
66
3C
ENDCHAR

STARTCHAR D
ENCODING 68
SWIDTH 750 0
DWIDTH 10 0
BBX 9 9 1 0
BITMAP
3E00
3300
3180
6180
6180
6300
C300
C600
FC00
ENDCHAR

STARTCHAR E
ENCODING 69
SWIDTH 583 0
DWIDTH 8 0
BBX 7 9 1 0
BITMAP
3E
30
30
60
78
60
C0
C0
FC
ENDCHAR

STARTCHAR F
ENCODING 70
SWIDTH 490 0
DWIDTH 6 0
BBX 7 9 1 0
BITMAP
3E
30
30
60
78
60
C0
C0
C0
ENDCHAR

STARTCHAR G
ENCODING 71
SWIDTH 740 0
DWIDTH 10 0
BBX 9 9 2 0
BITMAP
1F80
3000
6000
6000
C000
C700
C300
6600
3C00
ENDCHAR

STARTCHAR H
ENCODING 72
SWIDTH 792 0
DWIDTH 10 0
BBX 10 9 1 0
BITMAP
30C0
30C0
30C0
6180
7F80
6180
C300
C300
C300
ENDCHAR

STARTCHAR I
ENCODING 73
SWIDTH 302 0
DWIDTH 4 0
BBX 4 9 1 0
BITMAP
30
30
30
60
60
60
C0
C0
C0
ENDCHAR

STARTCHAR J
ENCODING 74
SWIDTH 302 0
DWIDTH 4 0
BBX 7 12 -2 -3
BITMAP
06
06
06
0C
0C
0C
18
18
18
30
30
E0
ENDCHAR

STARTCHAR K
ENCODING 75
SWIDTH 646 0
DWIDTH 8 0
BBX 8 9 1 0
BITMAP
33
33
36
6C
78
6C
CC
C6
C6
ENDCHAR

STARTCHAR L
ENCODING 76
SWIDTH 531 0
DWIDTH 7 0
BBX 6 9 1 0
BITMAP
30
30
30
60
60
60
C0
C0
FC
ENDCHAR

STARTCHAR M
ENCODING 77
SWIDTH 948 0
DWIDTH 12 0
BBX 11 9 1 0
BITMAP
3060
3060
30E0
71E0
7960
6B60
CE60
CE60
CC60
ENDCHAR

STARTCHAR N
ENCODING 78
SWIDTH 781 0
DWIDTH 10 0
BBX 10 9 1 0
BITMAP
30C0
30C0
30C0
7980
6980
6D80
C500
C700
C300
ENDCHAR

STARTCHAR O
ENCODING 79
SWIDTH 833 0
DWIDTH 11 0
BBX 9 9 2 0
BITMAP
1E00
3300
6180
6180
C180
C300
C300
6600
3C00
ENDCHAR

STARTCHAR P
ENCODING 80
SWIDTH 583 0
DWIDTH 8 0
BBX 8 9 1 0
BITMAP
3E
33
33
66
7C
60
C0
C0
C0
ENDCHAR

STARTCHAR Q
ENCODING 81
SWIDTH 833 0
DWIDTH 11 0
BBX 9 12 2 -3
BITMAP
1E00
3300
6180
6180
C180
C300
C300
6600
3C00
0C80
0780
0300
ENDCHAR

STARTCHAR R
ENCODING 82
SWIDTH 646 0
DWIDTH 8 0
BBX 8 9 1 0
BITMAP
3E
33
33
66
7C
6C
CC
C6
C6
ENDCHAR

STARTCHAR S
ENCODING 83
SWIDTH 521 0
DWIDTH 7 0
BBX 8 9 0 0
BITMAP
1E
33
30
38
18
1C
0C
CC
78
ENDCHAR

STARTCHAR T
ENCODING 84
SWIDTH 619 0
DWIDTH 8 0
BBX 8 9 2 0
BITMAP
FF
18
18
30
30
30
60
60
60
ENDCHAR

STARTCHAR U
ENCODING 85
SWIDTH 750 0
DWIDTH 10 0
BBX 10 9 1 0
BITMAP
30C0
30C0
30C0
6180
6180
6180
C300
C300
7E00
ENDCHAR

STARTCHAR V
ENCODING 86
SWIDTH 552 0
DWIDTH 7 0
BBX 7 9 2 0
BITMAP
C6
C6
CC
CC
D8
58
70
60
60
ENDCHAR

STARTCHAR W
ENCODING 87
SWIDTH 948 0
DWIDTH 12 0
BBX 12 9 2 0
BITMAP
C630
C630
CE60
CE60
DAC0
52C0
7380
6300
6300
ENDCHAR

STARTCHAR X
ENCODING 88
SWIDTH 677 0
DWIDTH 9 0
BBX 10 9 0 0
BITMAP
30C0
3180
1B00
1E00
0C00
1C00
3600
6300
C300
ENDCHAR

STARTCHAR Y
ENCODING 89
SWIDTH 563 0
DWIDTH 7 0
BBX 8 9 1 0
BITMAP
C3
C6
6C
78
30
30
60
60
60
ENDCHAR

STARTCHAR Z
ENCODING 90
SWIDTH 635 0
DWIDTH 8 0
BBX 8 9 1 0
BITMAP
3F
03
06
0C
18
30
60
C0
FC
ENDCHAR

STARTCHAR bracketleft
ENCODING 91
SWIDTH 375 0
DWIDTH 5 0
BBX 6 12 1 -3
BITMAP
3C
30
30
30
60
60
60
60
C0
C0
C0
F0
ENDCHAR

STARTCHAR backslash
ENCODING 92
SWIDTH 281 0
DWIDTH 4 0
BBX 4 9 0 0
BITMAP
80
80
40
40
20
20
10
10
10
ENDCHAR

STARTCHAR bracketright
ENCODING 93
SWIDTH 375 0
DWIDTH 5 0
BBX 6 12 -1 -3
BITMAP
3C
0C
0C
0C
18
18
18
18
30
30
30
F0
ENDCHAR

STARTCHAR asciicircum
ENCODING 94
SWIDTH 583 0
DWIDTH 8 0
BBX 6 5 2 4
BITMAP
10
30
48
48
84
ENDCHAR

STARTCHAR underscore
ENCODING 95
SWIDTH 500 0
DWIDTH 7 0
BBX 7 1 0 -2
BITMAP
FE
ENDCHAR

STARTCHAR quoteleft
ENCODING 96
SWIDTH 260 0
DWIDTH 3 0
BBX 3 4 1 6
BITMAP
60
80
C0
C0
ENDCHAR

STARTCHAR a
ENCODING 97
SWIDTH 552 0
DWIDTH 7 0
BBX 6 6 1 0
BITMAP
3C
6C
CC
D8
F8
D8
ENDCHAR

STARTCHAR b
ENCODING 98
SWIDTH 542 0
DWIDTH 7 0
BBX 6 9 1 0
BITMAP
30
30
30
78
6C
6C
CC
D8
F0
ENDCHAR

STARTCHAR c
ENCODING 99
SWIDTH 469 0
DWIDTH 6 0
BBX 6 6 1 0
BITMAP
3C
60
C0
C0
C8
70
ENDCHAR

STARTCHAR d
ENCODING 100
SWIDTH 542 0
DWIDTH 7 0
BBX 7 9 1 0
BITMAP
06
06
06
3C
6C
6C
D8
D8
78
ENDCHAR

STARTCHAR e
ENCODING 101
SWIDTH 510 0
DWIDTH 7 0
BBX 6 6 1 0
BITMAP
38
6C
FC
C0
C8
70
ENDCHAR

STARTCHAR f
ENCODING 102
SWIDTH 333 0
DWIDTH 4 0
BBX 7 12 0 -3
BITMAP
0E
18
18
7C
30
30
60
60
60
C0
C0
C0
ENDCHAR

STARTCHAR g
ENCODING 103
SWIDTH 490 0
DWIDTH 6 0
BBX 8 9 0 -3
BITMAP
1F
36
36
3C
60
78
CC
CC
78
ENDCHAR

STARTCHAR h
ENCODING 104
SWIDTH 552 0
DWIDTH 7 0
BBX 7 9 1 0
BITMAP
30
30
30
6C
7E
66
CC
CC
CC
ENDCHAR

STARTCHAR i
ENCODING 105
SWIDTH 260 0
DWIDTH 3 0
BBX 4 9 1 0
BITMAP
30
30
00
60
60
60
C0
C0
C0
ENDCHAR

STARTCHAR j
ENCODING 106
SWIDTH 260 0
DWIDTH 3 0
BBX 7 12 -2 -3
BITMAP
06
06
00
0C
0C
0C
18
18
18
30
30
E0
ENDCHAR

STARTCHAR k
ENCODING 107
SWIDTH 509 0
DWIDTH 7 0
BBX 7 9 1 0
BITMAP
30
30
30
66
6C
78
D8
CC
C6
ENDCHAR

STARTCHAR l
ENCODING 108
SWIDTH 260 0
DWIDTH 3 0
BBX 4 9 1 0
BITMAP
30
30
30
60
60
60
C0
C0
C0
ENDCHAR

STARTCHAR m
ENCODING 109
SWIDTH 823 0
DWIDTH 11 0
BBX 11 6 1 0
BITMAP
6CC0
7760
6660
CCC0
CCC0
CCC0
ENDCHAR

STARTCHAR n
ENCODING 110
SWIDTH 552 0
DWIDTH 7 0
BBX 7 6 1 0
BITMAP
6C
7E
66
CC
CC
CC
ENDCHAR

STARTCHAR o
ENCODING 111
SWIDTH 563 0
DWIDTH 7 0
BBX 6 6 1 0
BITMAP
38
6C
CC
CC
D8
70
ENDCHAR

STARTCHAR p
ENCODING 112
SWIDTH 583 0
DWIDTH 8 0
BBX 7 10 1 -3
BITMAP
30
3C
76
B6
66
6C
78
C0
C0
C0
ENDCHAR

STARTCHAR q
ENCODING 113
SWIDTH 552 0
DWIDTH 7 0
BBX 6 9 1 -3
BITMAP
7C
6C
CC
D8
D8
78
30
30
30
ENDCHAR

STARTCHAR r
ENCODING 114
SWIDTH 365 0
DWIDTH 5 0
BBX 5 6 1 0
BITMAP
68
78
60
C0
C0
C0
ENDCHAR

STARTCHAR s
ENCODING 115
SWIDTH 375 0
DWIDTH 5 0
BBX 5 6 1 0
BITMAP
38
68
60
30
B0
E0
ENDCHAR

STARTCHAR t
ENCODING 116
SWIDTH 365 0
DWIDTH 5 0
BBX 5 7 1 0
BITMAP
30
F8
60
60
C0
C0
E0
ENDCHAR

STARTCHAR u
ENCODING 117
SWIDTH 552 0
DWIDTH 7 0
BBX 7 6 1 0
BITMAP
66
66
66
CC
FC
6C
ENDCHAR

STARTCHAR v
ENCODING 118
SWIDTH 458 0
DWIDTH 6 0
BBX 6 6 1 0
BITMAP
CC
CC
D8
D8
70
60
ENDCHAR

STARTCHAR w
ENCODING 119
SWIDTH 729 0
DWIDTH 9 0
BBX 9 6 1 0
BITMAP
6D80
6D80
DB00
DB00
7E00
6C00
ENDCHAR

STARTCHAR x
ENCODING 120
SWIDTH 531 0
DWIDTH 7 0
BBX 7 6 1 0
BITMAP
66
2C
38
38
68
CC
ENDCHAR

STARTCHAR y
ENCODING 121
SWIDTH 490 0
DWIDTH 6 0
BBX 6 9 1 -3
BITMAP
CC
CC
D8
58
70
60
60
C0
C0
ENDCHAR

STARTCHAR z
ENCODING 122
SWIDTH 458 0
DWIDTH 6 0
BBX 6 6 1 0
BITMAP
7C
0C
18
30
60
F8
ENDCHAR

STARTCHAR braceleft
ENCODING 123
SWIDTH 385 0
DWIDTH 5 0
BBX 3 12 2 -3
BITMAP
20
40
40
40
40
80
40
40
40
40
40
20
ENDCHAR

STARTCHAR bar
ENCODING 124
SWIDTH 281 0
DWIDTH 4 0
BBX 1 12 2 -3
BITMAP
80
80
80
80
80
80
80
80
80
80
80
80
ENDCHAR

STARTCHAR braceright
ENCODING 125
SWIDTH 385 0
DWIDTH 5 0
BBX 3 12 2 -3
BITMAP
80
40
40
40
40
20
40
40
40
40
40
80
ENDCHAR

STARTCHAR asciitilde
ENCODING 126
SWIDTH 584 0
DWIDTH 8 0
BBX 7 2 1 3
BITMAP
72
9C
ENDCHAR

STARTCHAR space
ENCODING 160
SWIDTH 278 0
DWIDTH 4 0
BBX 0 0 0 0
BITMAP
ENDCHAR

STARTCHAR exclamdown
ENCODING 161
SWIDTH 260 0
DWIDTH 3 0
BBX 4 9 0 -3
BITMAP
30
30
00
60
60
60
C0
C0
C0
ENDCHAR

STARTCHAR cent
ENCODING 162
SWIDTH 469 0
DWIDTH 6 0
BBX 6 11 0 -3
BITMAP
04
08
3C
6C
D0
D0
E8
70
20
40
40
ENDCHAR

STARTCHAR sterling
ENCODING 163
SWIDTH 542 0
DWIDTH 7 0
BBX 7 9 1 0
BITMAP
0E
18
18
30
78
30
60
60
FC
ENDCHAR

STARTCHAR currency
ENCODING 164
SWIDTH 552 0
DWIDTH 7 0
BBX 6 6 1 2
BITMAP
B4
48
84
84
48
B4
ENDCHAR

STARTCHAR yen
ENCODING 165
SWIDTH 552 0
DWIDTH 7 0
BBX 9 9 0 0
BITMAP
6180
6300
3600
3C00
FE00
1800
FE00
3000
3000
ENDCHAR

STARTCHAR brokenbar
ENCODING 166
SWIDTH 281 0
DWIDTH 4 0
BBX 1 12 2 -3
BITMAP
80
80
80
80
80
00
00
80
80
80
80
80
ENDCHAR

STARTCHAR section
ENCODING 167
SWIDTH 552 0
DWIDTH 7 0
BBX 6 12 1 -3
BITMAP
38
6C
60
70
D8
8C
C4
6C
38
18
D8
70
ENDCHAR

STARTCHAR dieresis
ENCODING 168
SWIDTH 333 0
DWIDTH 4 0
BBX 3 2 2 7
BITMAP
A0
A0
ENDCHAR

STARTCHAR copyright
ENCODING 169
SWIDTH 740 0
DWIDTH 10 0
BBX 9 9 1 0
BITMAP
3E00
4100
9C80
9480
9080
9480
9C80
4100
3E00
ENDCHAR

STARTCHAR ordfeminine
ENCODING 170
SWIDTH 365 0
DWIDTH 5 0
BBX 3 3 2 6
BITMAP
60
A0
E0
ENDCHAR

STARTCHAR guillemotleft
ENCODING 171
SWIDTH 542 0
DWIDTH 7 0
BBX 6 6 1 0
BITMAP
24
48
90
90
48
48
ENDCHAR

STARTCHAR logicalnot
ENCODING 172
SWIDTH 584 0
DWIDTH 8 0
BBX 6 4 2 2
BITMAP
FC
04
04
04
ENDCHAR

STARTCHAR hyphen
ENCODING 173
SWIDTH 344 0
DWIDTH 4 0
BBX 4 1 0 2
BITMAP
F0
ENDCHAR

STARTCHAR registered
ENCODING 174
SWIDTH 740 0
DWIDTH 10 0
BBX 9 9 1 0
BITMAP
3E00
4100
9C80
9480
9C80
9880
9480
4100
3E00
ENDCHAR

STARTCHAR macron
ENCODING 175
SWIDTH 333 0
DWIDTH 4 0
BBX 4 1 2 7
BITMAP
F0
ENDCHAR

STARTCHAR degree
ENCODING 176
SWIDTH 396 0
DWIDTH 5 0
BBX 4 4 2 5
BITMAP
60
90
90
60
ENDCHAR

STARTCHAR plusminus
ENCODING 177
SWIDTH 584 0
DWIDTH 8 0
BBX 7 9 1 0
BITMAP
10
10
10
FE
10
10
10
00
FE
ENDCHAR

STARTCHAR twosuperior
ENCODING 178
SWIDTH 323 0
DWIDTH 4 0
BBX 4 5 1 4
BITMAP
70
10
60
80
E0
ENDCHAR

STARTCHAR threesuperior
ENCODING 179
SWIDTH 323 0
DWIDTH 4 0
BBX 4 5 1 4
BITMAP
60
10
60
20
C0
ENDCHAR

STARTCHAR acute
ENCODING 180
SWIDTH 333 0
DWIDTH 4 0
BBX 2 2 2 7
BITMAP
40
80
ENDCHAR

STARTCHAR mu
ENCODING 181
SWIDTH 615 0
DWIDTH 8 0
BBX 8 8 0 -2
BITMAP
33
33
33
66
6E
76
C0
C0
ENDCHAR

STARTCHAR paragraph
ENCODING 182
SWIDTH 552 0
DWIDTH 7 0
BBX 7 12 1 -3
BITMAP
7E
FC
FC
FC
7C
3C
3C
3C
3C
3C
3C
3C
ENDCHAR

STARTCHAR periodcentered
ENCODING 183
SWIDTH 260 0
DWIDTH 3 0
BBX 1 2 1 3
BITMAP
80
80
ENDCHAR

STARTCHAR cedilla
ENCODING 184
SWIDTH 333 0
DWIDTH 4 0
BBX 4 3 0 -3
BITMAP
60
30
E0
ENDCHAR

STARTCHAR onesuperior
ENCODING 185
SWIDTH 323 0
DWIDTH 4 0
BBX 2 5 2 4
BITMAP
40
40
80
80
80
ENDCHAR

STARTCHAR ordmasculine
ENCODING 186
SWIDTH 375 0
DWIDTH 5 0
BBX 4 5 2 4
BITMAP
70
D0
90
B0
E0
ENDCHAR

STARTCHAR guillemotright
ENCODING 187
SWIDTH 542 0
DWIDTH 7 0
BBX 6 6 1 0
BITMAP
48
48
24
24
48
90
ENDCHAR

STARTCHAR onequarter
ENCODING 188
SWIDTH 844 0
DWIDTH 11 0
BBX 9 9 2 0
BITMAP
2080
2100
4200
4400
4980
1300
2500
4F80
8200
ENDCHAR

STARTCHAR onehalf
ENCODING 189
SWIDTH 844 0
DWIDTH 11 0
BBX 9 9 1 0
BITMAP
4200
4400
8400
8800
9380
2080
2300
4400
8F00
ENDCHAR

STARTCHAR threequarters
ENCODING 190
SWIDTH 844 0
DWIDTH 11 0
BBX 10 9 1 0
BITMAP
6080
1100
6200
2400
C4C0
0980
1280
27C0
4100
ENDCHAR

STARTCHAR questiondown
ENCODING 191
SWIDTH 323 0
DWIDTH 4 0
BBX 5 9 0 -3
BITMAP
18
18
00
30
60
60
C0
D0
70
ENDCHAR

STARTCHAR Agrave
ENCODING 192
SWIDTH 625 0
DWIDTH 8 0
BBX 7 12 1 0
BITMAP
08
04
00
0C
0C
1C
36
36
66
7E
C6
C6
ENDCHAR

STARTCHAR Aacute
ENCODING 193
SWIDTH 625 0
DWIDTH 8 0
BBX 7 12 1 0
BITMAP
02
04
00
0C
0C
1C
36
36
66
7E
C6
C6
ENDCHAR

STARTCHAR Acircumflex
ENCODING 194
SWIDTH 625 0
DWIDTH 8 0
BBX 7 12 1 0
BITMAP
06
0A
00
0C
0C
1C
36
36
66
7E
C6
C6
ENDCHAR

STARTCHAR Atilde
ENCODING 195
SWIDTH 625 0
DWIDTH 8 0
BBX 8 12 1 0
BITMAP
0D
16
00
0C
0C
1C
36
36
66
7E
C6
C6
ENDCHAR

STARTCHAR Adieresis
ENCODING 196
SWIDTH 625 0
DWIDTH 8 0
BBX 7 11 1 0
BITMAP
0A
00
0C
0C
1C
36
36
66
7E
C6
C6
ENDCHAR

STARTCHAR Aring
ENCODING 197
SWIDTH 625 0
DWIDTH 8 0
BBX 7 12 1 0
BITMAP
04
0A
04
0C
0C
1C
36
36
66
7E
C6
C6
ENDCHAR

STARTCHAR AE
ENCODING 198
SWIDTH 990 0
DWIDTH 13 0
BBX 12 9 1 0
BITMAP
0FF0
0D80
1980
1B00
33C0
3300
7E00
C600
C7E0
ENDCHAR

STARTCHAR Ccedilla
ENCODING 199
SWIDTH 688 0
DWIDTH 9 0
BBX 8 12 2 -3
BITMAP
1F
30
60
60
C0
C0
C0
66
3C
30
18
70
ENDCHAR

STARTCHAR Egrave
ENCODING 200
SWIDTH 583 0
DWIDTH 8 0
BBX 7 12 1 0
BITMAP
08
04
00
3E
30
30
60
78
60
C0
C0
FC
ENDCHAR

STARTCHAR Eacute
ENCODING 201
SWIDTH 583 0
DWIDTH 8 0
BBX 7 12 1 0
BITMAP
02
04
00
3E
30
30
60
78
60
C0
C0
FC
ENDCHAR

STARTCHAR Ecircumflex
ENCODING 202
SWIDTH 583 0
DWIDTH 8 0
BBX 7 12 1 0
BITMAP
06
0A
00
3E
30
30
60
78
60
C0
C0
FC
ENDCHAR

STARTCHAR Edieresis
ENCODING 203
SWIDTH 583 0
DWIDTH 8 0
BBX 7 11 1 0
BITMAP
12
00
3E
30
30
60
78
60
C0
C0
FC
ENDCHAR

STARTCHAR Igrave
ENCODING 204
SWIDTH 302 0
DWIDTH 4 0
BBX 4 12 1 0
BITMAP
20
10
00
30
30
30
60
60
60
C0
C0
C0
ENDCHAR

STARTCHAR Iacute
ENCODING 205
SWIDTH 302 0
DWIDTH 4 0
BBX 5 12 1 0
BITMAP
08
10
00
30
30
30
60
60
60
C0
C0
C0
ENDCHAR

STARTCHAR Icircumflex
ENCODING 206
SWIDTH 302 0
DWIDTH 4 0
BBX 5 12 1 0
BITMAP
18
28
00
30
30
30
60
60
60
C0
C0
C0
ENDCHAR

STARTCHAR Idieresis
ENCODING 207
SWIDTH 302 0
DWIDTH 4 0
BBX 5 11 1 0
BITMAP
28
00
30
30
30
60
60
60
C0
C0
C0
ENDCHAR

STARTCHAR Eth
ENCODING 208
SWIDTH 750 0
DWIDTH 10 0
BBX 9 9 1 0
BITMAP
3E00
3300
3180
6180
F980
6300
C300
C600
FC00
ENDCHAR

STARTCHAR Ntilde
ENCODING 209
SWIDTH 781 0
DWIDTH 10 0
BBX 10 12 1 0
BITMAP
0680
0B00
0000
30C0
30C0
30C0
7980
6980
6D80
C500
C700
C300
ENDCHAR

STARTCHAR Ograve
ENCODING 210
SWIDTH 833 0
DWIDTH 11 0
BBX 9 12 2 0
BITMAP
0800
0400
0000
1E00
3300
6180
6180
C180
C300
C300
6600
3C00
ENDCHAR

STARTCHAR Oacute
ENCODING 211
SWIDTH 833 0
DWIDTH 11 0
BBX 9 12 2 0
BITMAP
0200
0400
0000
1E00
3300
6180
6180
C180
C300
C300
6600
3C00
ENDCHAR

STARTCHAR Ocircumflex
ENCODING 212
SWIDTH 833 0
DWIDTH 11 0
BBX 9 12 2 0
BITMAP
0600
0A00
0000
1E00
3300
6180
6180
C180
C300
C300
6600
3C00
ENDCHAR

STARTCHAR Otilde
ENCODING 213
SWIDTH 833 0
DWIDTH 11 0
BBX 9 12 2 0
BITMAP
0680
0B00
0000
1E00
3300
6180
6180
C180
C300
C300
6600
3C00
ENDCHAR

STARTCHAR Odieresis
ENCODING 214
SWIDTH 833 0
DWIDTH 11 0
BBX 9 11 2 0
BITMAP
0900
0000
1E00
3300
6180
6180
C180
C300
C300
6600
3C00
ENDCHAR

STARTCHAR multiply
ENCODING 215
SWIDTH 584 0
DWIDTH 8 0
BBX 6 6 2 2
BITMAP
84
48
30
30
48
84
ENDCHAR

STARTCHAR Oslash
ENCODING 216
SWIDTH 833 0
DWIDTH 11 0
BBX 11 11 1 -1
BITMAP
0020
0F40
1980
31C0
32C0
64C0
6980
7180
3300
5E00
8000
ENDCHAR

STARTCHAR Ugrave
ENCODING 217
SWIDTH 750 0
DWIDTH 10 0
BBX 10 12 1 0
BITMAP
0400
0200
0000
30C0
30C0
30C0
6180
6180
6180
C300
C300
7E00
ENDCHAR

STARTCHAR Uacute
ENCODING 218
SWIDTH 750 0
DWIDTH 10 0
BBX 10 12 1 0
BITMAP
0100
0200
0000
30C0
30C0
30C0
6180
6180
6180
C300
C300
7E00
ENDCHAR

STARTCHAR Ucircumflex
ENCODING 219
SWIDTH 750 0
DWIDTH 10 0
BBX 10 12 1 0
BITMAP
0300
0500
0000
30C0
30C0
30C0
6180
6180
6180
C300
C300
7E00
ENDCHAR

STARTCHAR Udieresis
ENCODING 220
SWIDTH 750 0
DWIDTH 10 0
BBX 10 11 1 0
BITMAP
0900
0000
30C0
30C0
30C0
6180
6180
6180
C300
C300
7E00
ENDCHAR

STARTCHAR Yacute
ENCODING 221
SWIDTH 563 0
DWIDTH 7 0
BBX 8 12 1 0
BITMAP
04
08
00
C3
C6
6C
78
30
30
60
60
60
ENDCHAR

STARTCHAR Thorn
ENCODING 222
SWIDTH 583 0
DWIDTH 8 0
BBX 7 9 1 0
BITMAP
30
30
3C
66
66
6C
F8
C0
C0
ENDCHAR

STARTCHAR germandbls
ENCODING 223
SWIDTH 552 0
DWIDTH 7 0
BBX 8 9 0 0
BITMAP
1E
33
33
6E
6C
66
C6
D6
CC
ENDCHAR

STARTCHAR agrave
ENCODING 224
SWIDTH 552 0
DWIDTH 7 0
BBX 6 9 1 0
BITMAP
10
08
00
3C
6C
CC
D8
F8
D8
ENDCHAR

STARTCHAR aacute
ENCODING 225
SWIDTH 552 0
DWIDTH 7 0
BBX 6 9 1 0
BITMAP
04
08
00
3C
6C
CC
D8
F8
D8
ENDCHAR

STARTCHAR acircumflex
ENCODING 226
SWIDTH 552 0
DWIDTH 7 0
BBX 6 9 1 0
BITMAP
0C
14
00
3C
6C
CC
D8
F8
D8
ENDCHAR

STARTCHAR atilde
ENCODING 227
SWIDTH 552 0
DWIDTH 7 0
BBX 7 9 1 0
BITMAP
1A
2C
00
3C
6C
CC
D8
F8
D8
ENDCHAR

STARTCHAR adieresis
ENCODING 228
SWIDTH 552 0
DWIDTH 7 0
BBX 6 8 1 0
BITMAP
14
00
3C
6C
CC
D8
F8
D8
ENDCHAR

STARTCHAR aring
ENCODING 229
SWIDTH 552 0
DWIDTH 7 0
BBX 6 10 1 0
BITMAP
08
14
08
00
3C
6C
CC
D8
F8
D8
ENDCHAR

STARTCHAR ae
ENCODING 230
SWIDTH 688 0
DWIDTH 9 0
BBX 9 6 0 0
BITMAP
7F00
1980
7F80
D800
D980
6F00
ENDCHAR

STARTCHAR ccedilla
ENCODING 231
SWIDTH 469 0
DWIDTH 6 0
BBX 6 9 1 -3
BITMAP
3C
60
C0
C0
C8
70
60
30
E0
ENDCHAR

STARTCHAR egrave
ENCODING 232
SWIDTH 510 0
DWIDTH 7 0
BBX 6 9 1 0
BITMAP
20
10
00
38
6C
FC
C0
C8
70
ENDCHAR

STARTCHAR eacute
ENCODING 233
SWIDTH 510 0
DWIDTH 7 0
BBX 6 9 1 0
BITMAP
04
08
00
38
6C
FC
C0
C8
70
ENDCHAR

STARTCHAR ecircumflex
ENCODING 234
SWIDTH 510 0
DWIDTH 7 0
BBX 6 9 1 0
BITMAP
0C
14
00
38
6C
FC
C0
C8
70
ENDCHAR

STARTCHAR edieresis
ENCODING 235
SWIDTH 510 0
DWIDTH 7 0
BBX 6 8 1 0
BITMAP
14
00
38
6C
FC
C0
C8
70
ENDCHAR

STARTCHAR igrave
ENCODING 236
SWIDTH 260 0
DWIDTH 3 0
BBX 3 9 1 0
BITMAP
40
20
00
60
60
60
C0
C0
C0
ENDCHAR

STARTCHAR iacute
ENCODING 237
SWIDTH 260 0
DWIDTH 3 0
BBX 4 9 1 0
BITMAP
10
20
00
60
60
60
C0
C0
C0
ENDCHAR

STARTCHAR icircumflex
ENCODING 238
SWIDTH 260 0
DWIDTH 3 0
BBX 4 9 1 0
BITMAP
30
50
00
60
60
60
C0
C0
C0
ENDCHAR

STARTCHAR idieresis
ENCODING 239
SWIDTH 260 0
DWIDTH 3 0
BBX 4 8 1 0
BITMAP
50
00
60
60
60
C0
C0
C0
ENDCHAR

STARTCHAR eth
ENCODING 240
SWIDTH 552 0
DWIDTH 7 0
BBX 6 9 1 0
BITMAP
34
18
2C
3C
6C
CC
CC
D8
70
ENDCHAR

STARTCHAR ntilde
ENCODING 241
SWIDTH 552 0
DWIDTH 7 0
BBX 7 9 1 0
BITMAP
1A
2C
00
6C
7E
66
CC
CC
CC
ENDCHAR

STARTCHAR ograve
ENCODING 242
SWIDTH 563 0
DWIDTH 7 0
BBX 6 9 1 0
BITMAP
20
10
00
38
6C
CC
CC
D8
70
ENDCHAR

STARTCHAR oacute
ENCODING 243
SWIDTH 563 0
DWIDTH 7 0
BBX 6 9 1 0
BITMAP
04
08
00
38
6C
CC
CC
D8
70
ENDCHAR

STARTCHAR ocircumflex
ENCODING 244
SWIDTH 563 0
DWIDTH 7 0
BBX 6 9 1 0
BITMAP
0C
14
00
38
6C
CC
CC
D8
70
ENDCHAR

STARTCHAR otilde
ENCODING 245
SWIDTH 563 0
DWIDTH 7 0
BBX 7 9 1 0
BITMAP
1A
2C
00
38
6C
CC
CC
D8
70
ENDCHAR

STARTCHAR odieresis
ENCODING 246
SWIDTH 563 0
DWIDTH 7 0
BBX 6 8 1 0
BITMAP
28
00
38
6C
CC
CC
D8
70
ENDCHAR

STARTCHAR divide
ENCODING 247
SWIDTH 584 0
DWIDTH 8 0
BBX 6 5 2 2
BITMAP
30
00
FC
00
30
ENDCHAR

STARTCHAR oslash
ENCODING 248
SWIDTH 563 0
DWIDTH 7 0
BBX 6 8 1 -1
BITMAP
04
38
6C
DC
EC
D8
70
80
ENDCHAR

STARTCHAR ugrave
ENCODING 249
SWIDTH 552 0
DWIDTH 7 0
BBX 7 9 1 0
BITMAP
10
08
00
66
66
66
CC
FC
6C
ENDCHAR

STARTCHAR uacute
ENCODING 250
SWIDTH 552 0
DWIDTH 7 0
BBX 7 9 1 0
BITMAP
04
08
00
66
66
66
CC
FC
6C
ENDCHAR

STARTCHAR ucircumflex
ENCODING 251
SWIDTH 552 0
DWIDTH 7 0
BBX 7 9 1 0
BITMAP
0C
14
00
66
66
66
CC
FC
6C
ENDCHAR

STARTCHAR udieresis
ENCODING 252
SWIDTH 552 0
DWIDTH 7 0
BBX 7 8 1 0
BITMAP
24
00
66
66
66
CC
FC
6C
ENDCHAR

STARTCHAR yacute
ENCODING 253
SWIDTH 490 0
DWIDTH 6 0
BBX 6 12 1 -3
BITMAP
08
10
00
CC
CC
D8
58
70
60
60
C0
C0
ENDCHAR

STARTCHAR thorn
ENCODING 254
SWIDTH 583 0
DWIDTH 8 0
BBX 7 12 1 -3
BITMAP
30
30
30
3C
66
66
66
6C
78
C0
C0
C0
ENDCHAR

STARTCHAR ydieresis
ENCODING 255
SWIDTH 490 0
DWIDTH 6 0
BBX 6 11 1 -3
BITMAP
48
00
CC
CC
D8
58
70
60
60
C0
C0
ENDCHAR
ENDFONT
